<svg xmlns="http://www.w3.org/2000/svg" viewBox="0 0 512 512"><path d="M448 42.667H64c-35.285 0-64 28.715-64 64V192c0 35.285 28.715 64 64 64h42.667v192c0 11.797 9.557 21.333 21.333 21.333h256c11.797 0 21.333-9.536 21.333-21.333V256H448c35.285 0 64-28.715 64-64v-85.333c0-35.286-28.715-64-64-64zm-85.333 384H149.333v-256h213.333v256zM469.333 192c0 11.755-9.557 21.333-21.333 21.333h-42.667v-42.667h21.333c11.797 0 21.333-9.557 21.333-21.333S438.464 128 426.667 128H85.333C73.557 128 64 137.557 64 149.333s9.557 21.333 21.333 21.333h21.333v42.667H64c-11.755 0-21.333-9.579-21.333-21.333v-85.333c0-11.755 9.579-21.333 21.333-21.333h384c11.776 0 21.333 9.579 21.333 21.333V192z"/><path d="M264.533 279.467V247.68A72.418 72.418 0 0 1 284.16 256a9.696 9.696 0 0 0 3.84 0c5.888.107 10.773-4.565 10.88-10.453a8.683 8.683 0 0 0-2.133-5.547 51.595 51.595 0 0 0-32.213-13.44v-11.307c-.107-4.032-3.435-7.253-7.467-7.253h-.235c-4.117-.128-7.552 3.136-7.659 7.253v11.093c-20.821-.619-38.315 15.467-39.467 36.267 0 24.533 20.267 31.36 39.467 36.267v35.84a51.2 51.2 0 0 1-24.533-10.453 10.296 10.296 0 0 0-6.187-2.133 10.672 10.672 0 0 0-10.24 10.667 8.9 8.9 0 0 0 2.133 5.76 57.953 57.953 0 0 0 38.827 15.787v10.902c.256 4.117 3.776 7.253 7.893 7.019 4.032 0 7.36-3.221 7.467-7.253v-10.667c27.733-2.56 39.467-18.987 40.32-37.333 0-24.963-21.12-32.429-40.32-37.549zm-15.36-4.694C239.36 272 232.32 269.44 232.32 261.12s6.613-14.08 16.853-15.147v28.8zm15.36 59.947v-31.786c10.027 2.987 17.493 8.533 17.493 15.573.001 7.04-4.906 14.293-17.493 16.213z"/></svg>