<svg xmlns="http://www.w3.org/2000/svg" viewBox="0 0 512 512"><path fill="#24d0d4" d="M460.109 277.344h-10.672v-50.227l39.781-51.914-92-70.492 5.969-14.453-53.906-22.289-46.328-35.5-6.141 8.023 1.312-10.016-57.867-7.578L186.336.602l-5.977 14.453L65.438 0 45.711 150.648c-13.258 3.906-22.93 16.164-22.93 30.688v309.32c0 11.781 9.547 21.344 21.328 21.344h384c11.781 0 21.328-9.562 21.328-21.344v-64h10.672c5.891 0 10.672-4.766 10.672-10.656V288c0-5.891-4.781-10.656-10.672-10.656zM306.906 62.383l152.406 116.781-15.297 19.961c-3.906-4.375-9.578-7.125-15.906-7.125H414.25c-3.562-9.898-2.156-21.352 4.719-30.32l-84.688-64.883c-6.281 8.227-15.797 12.539-25.406 12.539a31.79 31.79 0 0 1-19.438-6.602L221.031 192h-13.445l99.32-129.617zm84.578 125.758c.172 1.297.391 2.586.656 3.859H247.906l48.172-62.867a53.61 53.61 0 0 0 12.797 1.539c8 0 16.031-1.836 23.219-5.305.875-.43 1.766-.883 2.625-1.359l57.844 44.32c-1.594 6.391-1.969 13.086-1.079 19.813zM180.711 192h-15.797l39.805-96.266c13.758-.266 26.516-5.75 36.016-14.93l19.125 7.906L180.711 192zm17.187-163.531L280 62.414l-6.719 8.766-40.031-16.555c-5.094 12.336-17.016 19.781-29.586 19.781a31.98 31.98 0 0 1-12.211-2.43L141.828 192h-11.539l67.609-163.531zM107.203 192H94.078l13.734-104.867a53.552 53.552 0 0 0 20.242-11.039 53.277 53.277 0 0 0 10.656-12.711l20.555 2.695L107.203 192zM83.821 23.922l88.102 11.539-4.219 10.203-42.961-5.625c-2.109 16.117-15.867 27.852-31.688 27.852-1.391 0-2.789-.094-4.195-.273L72.563 192H61.805L83.821 23.922zM428.11 490.656h-384v-277.32h384v64.008H321.438S278.75 328.438 278.75 352s42.688 74.656 42.688 74.656H428.11v64zm21.328-85.312H331.719c-3.781-4.875-8.828-11.594-13.844-19-16.75-24.625-17.734-33.734-17.781-34.344.047-.609 1.031-9.719 17.781-34.344 5.016-7.406 10.062-14.125 13.844-19h117.719v106.688z"/><path fill="#24d0d4" d="M364.109 320c-17.672 0-32 14.328-32 32s14.329 32 32 32c17.672 0 32-14.328 32-32s-14.328-32-32-32zm0 42.656c-5.891 0-10.672-4.781-10.672-10.656s4.782-10.656 10.672-10.656c5.891 0 10.672 4.781 10.672 10.656s-4.781 10.656-10.672 10.656z"/></svg>